<svg width="400" height="200" viewBox="0 0 400 200" fill="none" xmlns="http://www.w3.org/2000/svg">
  <rect width="400" height="200" fill="white"/>
  
  <!-- Brand background -->
  <rect x="50" y="50" width="300" height="100" rx="10" fill="#1E40AF"/>
  
  <!-- Brand name -->
  <path d="M80 100H120" stroke="white" stroke-width="12" stroke-linecap="round"/>
  <path d="M80 120H110" stroke="white" stroke-width="8" stroke-linecap="round"/>
  
  <path d="M130 80V120" stroke="white" stroke-width="12" stroke-linecap="round"/>
  <path d="M130 80H150" stroke="white" stroke-width="12" stroke-linecap="round"/>
  <path d="M130 100H145" stroke="white" stroke-width="12" stroke-linecap="round"/>
  <path d="M130 120H150" stroke="white" stroke-width="12" stroke-linecap="round"/>
  
  <path d="M170 80V120" stroke="white" stroke-width="12" stroke-linecap="round"/>
  <path d="M170 80H190" stroke="white" stroke-width="12" stroke-linecap="round"/>
  <path d="M170 120H190" stroke="white" stroke-width="12" stroke-linecap="round"/>
  
  <!-- Care text -->
  <path d="M220 100C220 88.9543 228.954 80 240 80H260C271.046 80 280 88.9543 280 100C280 111.046 271.046 120 260 120H240C228.954 120 220 111.046 220 100Z" stroke="white" stroke-width="8"/>
  
  <path d="M300 80V120" stroke="white" stroke-width="12" stroke-linecap="round"/>
  <path d="M300 80H320" stroke="white" stroke-width="12" stroke-linecap="round"/>
  <path d="M300 100H315" stroke="white" stroke-width="12" stroke-linecap="round"/>
  <path d="M300 120H320" stroke="white" stroke-width="12" stroke-linecap="round"/>
  
  <!-- Paw icon -->
  <circle cx="340" cy="90" r="10" fill="white"/>
  <circle cx="320" cy="100" r="10" fill="white"/>
  <circle cx="360" cy="100" r="10" fill="white"/>
  <path d="M330 115C330 115 340 130 350 115" stroke="white" stroke-width="8" stroke-linecap="round"/>
</svg>