<svg width="400" height="200" viewBox="0 0 400 200" fill="none" xmlns="http://www.w3.org/2000/svg">
  <rect width="400" height="200" fill="#F3F4F6"/>
  <rect x="100" y="60" width="200" height="80" rx="8" fill="#D1D5DB"/>
  <path d="M150 100C150 94.4772 154.477 90 160 90H240C245.523 90 250 94.4772 250 100C250 105.523 245.523 110 240 110H160C154.477 110 150 105.523 150 100Z" fill="#9CA3AF"/>
  <path d="M130 120C130 117.239 132.239 115 135 115H265C267.761 115 270 117.239 270 120C270 122.761 267.761 125 265 125H135C132.239 125 130 122.761 130 120Z" fill="#9CA3AF"/>
</svg>