<svg width="400" height="200" viewBox="0 0 400 200" fill="none" xmlns="http://www.w3.org/2000/svg">
  <rect width="400" height="200" fill="white"/>
  
  <!-- Brand background -->
  <rect x="50" y="50" width="300" height="100" rx="10" fill="#3B82F6"/>
  
  <!-- T letter -->
  <path d="M80 70H120" stroke="white" stroke-width="12" stroke-linecap="round"/>
  <path d="M100 70V130" stroke="white" stroke-width="12" stroke-linecap="round"/>
  
  <!-- E letter -->
  <path d="M140 70H170" stroke="white" stroke-width="12" stroke-linecap="round"/>
  <path d="M140 100H165" stroke="white" stroke-width="12" stroke-linecap="round"/>
  <path d="M140 130H170" stroke="white" stroke-width="12" stroke-linecap="round"/>
  <path d="M140 70V130" stroke="white" stroke-width="12" stroke-linecap="round"/>
  
  <!-- T letter -->
  <path d="M190 70H230" stroke="white" stroke-width="12" stroke-linecap="round"/>
  <path d="M210 70V130" stroke="white" stroke-width="12" stroke-linecap="round"/>
  
  <!-- R letter -->
  <path d="M250 70V130" stroke="white" stroke-width="12" stroke-linecap="round"/>
  <path d="M250 70H270C281.046 70 290 78.9543 290 90C290 101.046 281.046 110 270 110H250" stroke="white" stroke-width="12" stroke-linecap="round" stroke-linejoin="round"/>
  <path d="M270 110L290 130" stroke="white" stroke-width="12" stroke-linecap="round" stroke-linejoin="round"/>
  
  <!-- A letter -->
  <path d="M310 130V70" stroke="white" stroke-width="12" stroke-linecap="round"/>
  <path d="M340 130V70" stroke="white" stroke-width="12" stroke-linecap="round"/>
  <path d="M310 100H340" stroke="white" stroke-width="12" stroke-linecap="round"/>
  
  <!-- Fish icon -->
  <path d="M320 160C320 160 330 150 340 150C350 150 360 160 360 160C360 160 350 170 340 170C330 170 320 160 320 160Z" fill="white"/>
  <circle cx="330" cy="155" r="3" fill="#3B82F6"/>
</svg>