<svg width="400" height="200" viewBox="0 0 400 200" fill="none" xmlns="http://www.w3.org/2000/svg">
  <rect width="400" height="200" fill="white"/>
  
  <!-- Brand background -->
  <rect x="50" y="50" width="300" height="100" rx="10" fill="#10B981"/>
  
  <!-- T letter -->
  <path d="M80 70H120" stroke="white" stroke-width="12" stroke-linecap="round"/>
  <path d="M100 70V130" stroke="white" stroke-width="12" stroke-linecap="round"/>
  
  <!-- R letter -->
  <path d="M140 70V130" stroke="white" stroke-width="12" stroke-linecap="round"/>
  <path d="M140 70H160C171.046 70 180 78.9543 180 90C180 101.046 171.046 110 160 110H140" stroke="white" stroke-width="12" stroke-linecap="round" stroke-linejoin="round"/>
  <path d="M160 110L180 130" stroke="white" stroke-width="12" stroke-linecap="round" stroke-linejoin="round"/>
  
  <!-- I letter -->
  <path d="M200 70V130" stroke="white" stroke-width="12" stroke-linecap="round"/>
  
  <!-- X letter -->
  <path d="M230 70L270 130" stroke="white" stroke-width="12" stroke-linecap="round" stroke-linejoin="round"/>
  <path d="M270 70L230 130" stroke="white" stroke-width="12" stroke-linecap="round" stroke-linejoin="round"/>
  
  <!-- I letter -->
  <path d="M290 70V130" stroke="white" stroke-width="12" stroke-linecap="round"/>
  
  <!-- E letter -->
  <path d="M310 70H340" stroke="white" stroke-width="12" stroke-linecap="round"/>
  <path d="M310 100H335" stroke="white" stroke-width="12" stroke-linecap="round"/>
  <path d="M310 130H340" stroke="white" stroke-width="12" stroke-linecap="round"/>
  <path d="M310 70V130" stroke="white" stroke-width="12" stroke-linecap="round"/>
  
  <!-- Paw print -->
  <circle cx="70" cy="150" r="8" fill="white"/>
  <circle cx="90" cy="150" r="8" fill="white"/>
  <circle cx="80" cy="130" r="8" fill="white"/>
  <path d="M70 160C70 160 80 170 90 160" stroke="white" stroke-width="6" stroke-linecap="round"/>
</svg>