<svg width="600" height="400" viewBox="0 0 600 400" fill="none" xmlns="http://www.w3.org/2000/svg">
  <rect width="600" height="400" fill="#F3F4F6"/>
  
  <!-- Category background -->
  <rect x="50" y="50" width="500" height="300" rx="20" fill="#FEF3C7"/>
  
  <!-- Pet collar -->
  <path d="M150 100C150 100 100 120 100 150C100 180 150 200 150 200" stroke="#F59E0B" stroke-width="12" stroke-linecap="round"/>
  <path d="M150 100C150 100 200 120 200 150C200 180 150 200 150 200" stroke="#F59E0B" stroke-width="12" stroke-linecap="round"/>
  <circle cx="150" cy="150" r="10" fill="#FDE68A"/>
  
  <!-- Pet tag -->
  <circle cx="250" cy="120" r="30" fill="#60A5FA"/>
  <circle cx="250" cy="120" r="20" fill="#93C5FD"/>
  <path d="M250 100V140" stroke="#1E40AF" stroke-width="4" stroke-linecap="round"/>
  <path d="M230 120H270" stroke="#1E40AF" stroke-width="4" stroke-linecap="round"/>
  
  <path d="M250 90C250 90 250 80 250 70" stroke="#60A5FA" stroke-width="4" stroke-linecap="round"/>
  
  <!-- Pet bow tie -->
  <path d="M350 100C350 100 330 120 350 140C370 120 350 100 350 100Z" fill="#F472B6"/>
  <path d="M350 100C350 100 370 120 350 140C330 120 350 100 350 100Z" fill="#F472B6"/>
  <circle cx="350" cy="120" r="5" fill="#BE185D"/>
  
  <!-- Pet bandana -->
  <path d="M450 100L480 140H420L450 100Z" fill="#A78BFA"/>
  <path d="M450 100L480 140" stroke="#7C3AED" stroke-width="2" stroke-linecap="round"/>
  <path d="M450 100L420 140" stroke="#7C3AED" stroke-width="2" stroke-linecap="round"/>
  
  <path d="M440 120L460 120" stroke="#7C3AED" stroke-width="2" stroke-linecap="round"/>
  <path d="M435 130L465 130" stroke="#7C3AED" stroke-width="2" stroke-linecap="round"/>
  
  <!-- Pet harness -->
  <rect x="100" y="220" width="80" height="60" rx="10" fill="#34D399"/>
  <path d="M120 220V280" stroke="#059669" stroke-width="4" stroke-linecap="round"/>
  <path d="M160 220V280" stroke="#059669" stroke-width="4" stroke-linecap="round"/>
  
  <path d="M100 240H180" stroke="#059669" stroke-width="4" stroke-linecap="round"/>
  <path d="M100 260H180" stroke="#059669" stroke-width="4" stroke-linecap="round"/>
  
  <!-- Pet leash -->
  <path d="M220 220C220 220 240 200 220 180C200 160 180 180 180 180" stroke="#F87171" stroke-width="6" stroke-linecap="round"/>
  <circle cx="220" cy="220" r="10" fill="#F87171"/>
  
  <path d="M180 180C180 180 160 200 180 220C200 240 220 220 220 220" stroke="#F87171" stroke-width="6" stroke-linecap="round"/>
  
  <!-- Pet clothes -->
  <path d="M300 220L280 240V280H320V240L300 220Z" fill="#60A5FA"/>
  <path d="M290 240H310" stroke="#2563EB" stroke-width="2" stroke-linecap="round"/>
  <path d="M290 250H310" stroke="#2563EB" stroke-width="2" stroke-linecap="round"/>
  <path d="M290 260H310" stroke="#2563EB" stroke-width="2" stroke-linecap="round"/>
  
  <!-- Pet boots -->
  <rect x="360" y="240" width="20" height="30" rx="5" fill="#F59E0B"/>
  <rect x="390" y="240" width="20" height="30" rx="5" fill="#F59E0B"/>
  <rect x="420" y="240" width="20" height="30" rx="5" fill="#F59E0B"/>
  <rect x="450" y="240" width="20" height="30" rx="5" fill="#F59E0B"/>
  
  <path d="M360 250H380" stroke="#92400E" stroke-width="2" stroke-linecap="round"/>
  <path d="M390 250H410" stroke="#92400E" stroke-width="2" stroke-linecap="round"/>
  <path d="M420 250H440" stroke="#92400E" stroke-width="2" stroke-linecap="round"/>
  <path d="M450 250H470" stroke="#92400E" stroke-width="2" stroke-linecap="round"/>
  
  <!-- Category name -->
  <rect x="200" y="340" width="200" height="40" rx="10" fill="#F59E0B"/>
  <path d="M250 360H350" stroke="white" stroke-width="6" stroke-linecap="round"/>
</svg>