<svg width="600" height="400" viewBox="0 0 600 400" fill="none" xmlns="http://www.w3.org/2000/svg">
  <rect width="600" height="400" fill="#F3F4F6"/>
  
  <!-- Category background -->
  <rect x="50" y="50" width="500" height="300" rx="20" fill="#FEF3C7"/>
  
  <!-- Dog food bag -->
  <path d="M150 100L180 120V250L150 230V100Z" fill="#F59E0B"/>
  <path d="M150 100L120 120V250L150 230V100Z" fill="#D97706"/>
  <path d="M120 120L150 100L180 120L150 140L120 120Z" fill="#FBBF24"/>
  <path d="M150 140V230" stroke="#92400E" stroke-width="2" stroke-linecap="round"/>
  <path d="M120 120L150 140L180 120" stroke="#92400E" stroke-width="2" stroke-linecap="round"/>
  
  <circle cx="150" cy="180" r="20" fill="#FCD34D"/>
  <path d="M140 180H160" stroke="#92400E" stroke-width="3" stroke-linecap="round"/>
  <path d="M150 170V190" stroke="#92400E" stroke-width="3" stroke-linecap="round"/>
  
  <!-- Cat food can -->
  <path d="M250 150L280 150V220L250 220V150Z" fill="#3B82F6"/>
  <ellipse cx="265" cy="150" rx="15" ry="5" fill="#60A5FA"/>
  <ellipse cx="265" cy="220" rx="15" ry="5" fill="#1D4ED8"/>
  
  <rect x="255" y="170" width="20" height="30" rx="2" fill="#93C5FD"/>
  <path d="M260 180L270 180" stroke="#1E40AF" stroke-width="2" stroke-linecap="round"/>
  <path d="M260 185L270 185" stroke="#1E40AF" stroke-width="2" stroke-linecap="round"/>
  <path d="M260 190L270 190" stroke="#1E40AF" stroke-width="2" stroke-linecap="round"/>
  
  <!-- Fish food container -->
  <rect x="320" y="160" width="40" height="60" rx="5" fill="#10B981"/>
  <path d="M320 170H360" stroke="#065F46" stroke-width="2" stroke-linecap="round"/>
  <rect x="330" y="180" width="20" height="30" rx="2" fill="#D1FAE5"/>
  
  <path d="M335 190L345 190" stroke="#065F46" stroke-width="2" stroke-linecap="round"/>
  <path d="M335 195L345 195" stroke="#065F46" stroke-width="2" stroke-linecap="round"/>
  <path d="M335 200L345 200" stroke="#065F46" stroke-width="2" stroke-linecap="round"/>
  
  <!-- Bird seed bag -->
  <path d="M400 120L430 140V270L400 250V120Z" fill="#EC4899"/>
  <path d="M400 120L370 140V270L400 250V120Z" fill="#BE185D"/>
  <path d="M370 140L400 120L430 140L400 160L370 140Z" fill="#F472B6"/>
  <path d="M400 160V250" stroke="#831843" stroke-width="2" stroke-linecap="round"/>
  <path d="M370 140L400 160L430 140" stroke="#831843" stroke-width="2" stroke-linecap="round"/>
  
  <circle cx="400" cy="200" r="20" fill="#FBCFE8"/>
  <path d="M390 200C390 200 395 205 400 200C405 195 410 200 410 200" stroke="#831843" stroke-width="2" stroke-linecap="round"/>
  
  <!-- Pet treats -->
  <rect x="480" y="180" width="30" height="50" rx="5" fill="#A78BFA"/>
  <path d="M480 190H510" stroke="#6D28D9" stroke-width="2" stroke-linecap="round"/>
  <path d="M490 200L500 200" stroke="#C4B5FD" stroke-width="3" stroke-linecap="round"/>
  <path d="M490 210L500 210" stroke="#C4B5FD" stroke-width="3" stroke-linecap="round"/>
  <path d="M490 220L500 220" stroke="#C4B5FD" stroke-width="3" stroke-linecap="round"/>
  
  <!-- Pet bowl with food -->
  <ellipse cx="300" cy="280" rx="50" ry="20" fill="#F87171"/>
  <path d="M250 280C250 280 250 310 300 310C350 310 350 280 350 280" stroke="#F87171" stroke-width="8" stroke-linecap="round"/>
  <ellipse cx="300" cy="280" rx="40" ry="15" fill="#FCA5A5"/>
  
  <circle cx="285" cy="275" r="5" fill="#FBBF24"/>
  <circle cx="300" cy="280" r="5" fill="#FBBF24"/>
  <circle cx="315" cy="275" r="5" fill="#FBBF24"/>
  <circle cx="290" cy="290" r="5" fill="#FBBF24"/>
  <circle cx="310" cy="290" r="5" fill="#FBBF24"/>
  
  <!-- Category name -->
  <rect x="200" y="340" width="200" height="40" rx="10" fill="#F59E0B"/>
  <path d="M250 360H350" stroke="white" stroke-width="6" stroke-linecap="round"/>
</svg>