<svg width="600" height="400" viewBox="0 0 600 400" fill="none" xmlns="http://www.w3.org/2000/svg">
  <rect width="600" height="400" fill="#F3F4F6"/>
  
  <!-- Category background -->
  <rect x="50" y="50" width="500" height="300" rx="20" fill="#FEE2E2"/>
  
  <!-- Dog ball -->
  <circle cx="150" cy="120" r="40" fill="#F87171"/>
  <path d="M130 100L170 140" stroke="white" stroke-width="4" stroke-linecap="round"/>
  <path d="M130 140L170 100" stroke="white" stroke-width="4" stroke-linecap="round"/>
  
  <!-- Cat toy mouse -->
  <ellipse cx="250" cy="120" rx="30" ry="20" fill="#A78BFA"/>
  <circle cx="220" cy="120" r="10" fill="#A78BFA"/>
  
  <path d="M210 115L205 110" stroke="#A78BFA" stroke-width="4" stroke-linecap="round"/>
  <path d="M210 125L205 130" stroke="#A78BFA" stroke-width="4" stroke-linecap="round"/>
  
  <circle cx="215" cy="115" r="3" fill="#4C1D95"/>
  <circle cx="215" cy="125" r="3" fill="#4C1D95"/>
  
  <path d="M280 120C280 120 290 110 300 120" stroke="#A78BFA" stroke-width="4" stroke-linecap="round"/>
  
  <!-- Bird perch toy -->
  <rect x="350" y="100" width="10" height="80" rx="2" fill="#FBBF24"/>
  <rect x="320" y="100" width="70" height="10" rx="2" fill="#FBBF24"/>
  
  <path d="M330 100C330 100 330 90 340 90C350 90 350 100 350 100" stroke="#FBBF24" stroke-width="4" stroke-linecap="round"/>
  <path d="M360 100C360 100 360 90 370 90C380 90 380 100 380 100" stroke="#FBBF24" stroke-width="4" stroke-linecap="round"/>
  
  <circle cx="340" cy="90" r="5" fill="#F59E0B"/>
  <circle cx="370" cy="90" r="5" fill="#F59E0B"/>
  
  <!-- Fish tank decoration -->
  <path d="M450 100C450 100 430 120 430 140C430 160 450 180 450 180" stroke="#0EA5E9" stroke-width="4" stroke-linecap="round"/>
  <path d="M450 100C450 100 470 120 470 140C470 160 450 180 450 180" stroke="#0EA5E9" stroke-width="4" stroke-linecap="round"/>
  
  <path d="M440 120L460 120" stroke="#0EA5E9" stroke-width="4" stroke-linecap="round"/>
  <path d="M440 140L460 140" stroke="#0EA5E9" stroke-width="4" stroke-linecap="round"/>
  <path d="M440 160L460 160" stroke="#0EA5E9" stroke-width="4" stroke-linecap="round"/>
  
  <circle cx="450" cy="110" r="5" fill="#7DD3FC"/>
  <circle cx="450" cy="130" r="5" fill="#7DD3FC"/>
  <circle cx="450" cy="150" r="5" fill="#7DD3FC"/>
  <circle cx="450" cy="170" r="5" fill="#7DD3FC"/>
  
  <!-- Dog chew toy -->
  <path d="M120 220C120 220 100 230 100 250C100 270 120 280 120 280" stroke="#22C55E" stroke-width="8" stroke-linecap="round"/>
  <path d="M120 220C120 220 140 230 140 250C140 270 120 280 120 280" stroke="#22C55E" stroke-width="8" stroke-linecap="round"/>
  
  <path d="M100 250H140" stroke="#16A34A" stroke-width="4" stroke-linecap="round"/>
  
  <!-- Cat scratching post -->
  <rect x="200" y="220" width="40" height="60" rx="2" fill="#F59E0B"/>
  <rect x="180" y="280" width="80" height="10" rx="2" fill="#F59E0B"/>
  
  <path d="M205 225L235 275" stroke="#92400E" stroke-width="2" stroke-linecap="round"/>
  <path d="M210 225L240 275" stroke="#92400E" stroke-width="2" stroke-linecap="round"/>
  <path d="M215 225L245 275" stroke="#92400E" stroke-width="2" stroke-linecap="round"/>
  <path d="M220 225L250 275" stroke="#92400E" stroke-width="2" stroke-linecap="round"/>
  <path d="M225 225L255 275" stroke="#92400E" stroke-width="2" stroke-linecap="round"/>
  <path d="M230 225L260 275" stroke="#92400E" stroke-width="2" stroke-linecap="round"/>
  <path d="M235 225L265 275" stroke="#92400E" stroke-width="2" stroke-linecap="round"/>
  
  <!-- Bird swing -->
  <path d="M300 220L350 220" stroke="#A78BFA" stroke-width="4" stroke-linecap="round"/>
  <path d="M300 220C300 220 300 210 300 210" stroke="#A78BFA" stroke-width="4" stroke-linecap="round"/>
  <path d="M350 220C350 220 350 210 350 210" stroke="#A78BFA" stroke-width="4" stroke-linecap="round"/>
  
  <path d="M325 220C325 220 325 240 325 260" stroke="#A78BFA" stroke-width="4" stroke-linecap="round"/>
  <rect x="310" y="260" width="30" height="10" rx="2" fill="#A78BFA"/>
  
  <!-- Interactive toy -->
  <circle cx="420" cy="250" r="30" fill="#60A5FA"/>
  <path d="M400 230L440 270" stroke="#2563EB" stroke-width="4" stroke-linecap="round"/>
  <path d="M400 270L440 230" stroke="#2563EB" stroke-width="4" stroke-linecap="round"/>
  
  <circle cx="420" cy="250" r="10" fill="#93C5FD"/>
  <path d="M415 250H425" stroke="#1E40AF" stroke-width="2" stroke-linecap="round"/>
  <path d="M420 245V255" stroke="#1E40AF" stroke-width="2" stroke-linecap="round"/>
  
  <!-- Hamster wheel -->
  <circle cx="500" cy="250" r="30" stroke="#F472B6" stroke-width="4"/>
  <path d="M500 220L500 280" stroke="#F472B6" stroke-width="4" stroke-linecap="round"/>
  <path d="M470 250L530 250" stroke="#F472B6" stroke-width="4" stroke-linecap="round"/>
  <path d="M479 229L521 271" stroke="#F472B6" stroke-width="4" stroke-linecap="round"/>
  <path d="M479 271L521 229" stroke="#F472B6" stroke-width="4" stroke-linecap="round"/>
  
  <!-- Category name -->
  <rect x="200" y="340" width="200" height="40" rx="10" fill="#EF4444"/>
  <path d="M250 360H350" stroke="white" stroke-width="6" stroke-linecap="round"/>
</svg>