<svg width="600" height="400" viewBox="0 0 600 400" fill="none" xmlns="http://www.w3.org/2000/svg">
  <rect width="600" height="400" fill="#F3F4F6"/>
  
  <!-- Category background -->
  <rect x="50" y="50" width="500" height="300" rx="20" fill="#DBEAFE"/>
  
  <!-- Water waves -->
  <path d="M100 150C100 150 150 130 200 150C250 170 300 130 350 150C400 170 450 130 500 150" stroke="#93C5FD" stroke-width="8" stroke-linecap="round"/>
  <path d="M100 200C100 200 150 180 200 200C250 220 300 180 350 200C400 220 450 180 500 200" stroke="#93C5FD" stroke-width="8" stroke-linecap="round"/>
  <path d="M100 250C100 250 150 230 200 250C250 270 300 230 350 250C400 270 450 230 500 250" stroke="#93C5FD" stroke-width="8" stroke-linecap="round"/>
  
  <!-- Fish -->
  <path d="M350 120C350 120 400 100 450 120C450 120 400 140 350 120Z" fill="#3B82F6"/>
  <path d="M350 120L300 100L300 140L350 120Z" fill="#3B82F6"/>
  <circle cx="420" cy="120" r="5" fill="white"/>
  
  <path d="M250 180C250 180 300 160 350 180C350 180 300 200 250 180Z" fill="#60A5FA"/>
  <path d="M250 180L200 160L200 200L250 180Z" fill="#60A5FA"/>
  <circle cx="320" cy="180" r="5" fill="white"/>
  
  <path d="M400 240C400 240 450 220 500 240C500 240 450 260 400 240Z" fill="#2563EB"/>
  <path d="M400 240L350 220L350 260L400 240Z" fill="#2563EB"/>
  <circle cx="470" cy="240" r="5" fill="white"/>
  
  <!-- Bubbles -->
  <circle cx="150" cy="120" r="10" fill="#BFDBFE" fill-opacity="0.6"/>
  <circle cx="170" cy="150" r="8" fill="#BFDBFE" fill-opacity="0.6"/>
  <circle cx="140" cy="180" r="12" fill="#BFDBFE" fill-opacity="0.6"/>
  <circle cx="160" cy="210" r="6" fill="#BFDBFE" fill-opacity="0.6"/>
  <circle cx="130" cy="240" r="9" fill="#BFDBFE" fill-opacity="0.6"/>
  
  <!-- Category name -->
  <rect x="200" y="340" width="200" height="40" rx="10" fill="#3B82F6"/>
  <path d="M250 360H350" stroke="white" stroke-width="6" stroke-linecap="round"/>
</svg>