<svg width="600" height="400" viewBox="0 0 600 400" fill="none" xmlns="http://www.w3.org/2000/svg">
  <rect width="600" height="400" fill="#F3F4F6"/>
  
  <!-- Category background -->
  <rect x="50" y="50" width="500" height="300" rx="20" fill="#E0E7FF"/>
  
  <!-- Cat silhouette -->
  <circle cx="300" cy="150" r="60" fill="#6366F1"/>
  
  <!-- Cat ears -->
  <path d="M260 110L240 70" stroke="#6366F1" stroke-width="12" stroke-linecap="round"/>
  <path d="M340 110L360 70" stroke="#6366F1" stroke-width="12" stroke-linecap="round"/>
  
  <!-- Cat body -->
  <path d="M300 210V260" stroke="#6366F1" stroke-width="12" stroke-linecap="round"/>
  
  <path d="M300 260L240 300" stroke="#6366F1" stroke-width="12" stroke-linecap="round"/>
  <path d="M300 260L360 300" stroke="#6366F1" stroke-width="12" stroke-linecap="round"/>
  
  <path d="M240 300L220 340" stroke="#6366F1" stroke-width="12" stroke-linecap="round"/>
  <path d="M360 300L380 340" stroke="#6366F1" stroke-width="12" stroke-linecap="round"/>
  
  <!-- Cat tail -->
  <path d="M300 260C300 260 350 270 380 240" stroke="#6366F1" stroke-width="12" stroke-linecap="round"/>
  
  <!-- Cat face -->
  <path d="M280 140L270 130" stroke="#312E81" stroke-width="6" stroke-linecap="round"/>
  <path d="M280 150L270 160" stroke="#312E81" stroke-width="6" stroke-linecap="round"/>
  <path d="M280 160L270 170" stroke="#312E81" stroke-width="6" stroke-linecap="round"/>
  
  <path d="M320 140L330 130" stroke="#312E81" stroke-width="6" stroke-linecap="round"/>
  <path d="M320 150L330 160" stroke="#312E81" stroke-width="6" stroke-linecap="round"/>
  <path d="M320 160L330 170" stroke="#312E81" stroke-width="6" stroke-linecap="round"/>
  
  <circle cx="285" cy="135" r="5" fill="#312E81"/>
  <circle cx="315" cy="135" r="5" fill="#312E81"/>
  
  <path d="M290 155C290 155 300 165 310 155" stroke="#312E81" stroke-width="3" stroke-linecap="round"/>
  
  <!-- Category name -->
  <rect x="200" y="340" width="200" height="40" rx="10" fill="#6366F1"/>
  <path d="M250 360H350" stroke="white" stroke-width="6" stroke-linecap="round"/>
</svg>