<svg width="1920" height="600" viewBox="0 0 1920 600" fill="none" xmlns="http://www.w3.org/2000/svg">
  <rect width="1920" height="600" fill="#EFF6FF"/>
  <rect x="0" y="0" width="1920" height="600" fill="url(#paint0_linear)"/>
  
  <!-- Pet silhouettes -->
  <path d="M1600 350C1600 322.386 1622.39 300 1650 300C1677.61 300 1700 322.386 1700 350C1700 377.614 1677.61 400 1650 400C1622.39 400 1600 377.614 1600 350Z" fill="#93C5FD" fill-opacity="0.6"/>
  <path d="M1650 320C1650 320 1630 340 1630 360C1630 380 1650 400 1650 400C1650 400 1670 380 1670 360C1670 340 1650 320 1650 320Z" fill="#60A5FA" fill-opacity="0.6"/>
  
  <path d="M1500 400C1500 372.386 1522.39 350 1550 350C1577.61 350 1600 372.386 1600 400C1600 427.614 1577.61 450 1550 450C1522.39 450 1500 427.614 1500 400Z" fill="#93C5FD" fill-opacity="0.6"/>
  <path d="M1550 370C1550 370 1530 390 1530 410C1530 430 1550 450 1550 450C1550 450 1570 430 1570 410C1570 390 1550 370 1550 370Z" fill="#60A5FA" fill-opacity="0.6"/>
  
  <!-- Text placeholders -->
  <rect x="200" y="150" width="600" height="80" rx="8" fill="#3B82F6" fill-opacity="0.8"/>
  <rect x="200" y="250" width="400" height="40" rx="8" fill="#60A5FA" fill-opacity="0.6"/>
  <rect x="200" y="310" width="400" height="40" rx="8" fill="#60A5FA" fill-opacity="0.6"/>
  
  <!-- CTA button -->
  <rect x="200" y="400" width="200" height="60" rx="30" fill="#2563EB"/>
  
  <defs>
    <linearGradient id="paint0_linear" x1="0" y1="0" x2="1920" y2="600" gradientUnits="userSpaceOnUse">
      <stop stop-color="#DBEAFE"/>
      <stop offset="1" stop-color="#EFF6FF"/>
    </linearGradient>
  </defs>
</svg>