<svg width="1200" height="300" viewBox="0 0 1200 300" fill="none" xmlns="http://www.w3.org/2000/svg">
  <rect width="1200" height="300" fill="#F3F4F6"/>
  
  <!-- Banner background with gradient -->
  <rect x="0" y="0" width="1200" height="300" fill="url(#paint0_linear)"/>
  
  <!-- Decorative elements -->
  <circle cx="100" cy="70" r="30" fill="#DBEAFE" fill-opacity="0.7"/>
  <circle cx="1100" cy="230" r="40" fill="#FEF3C7" fill-opacity="0.7"/>
  <circle cx="900" cy="50" r="25" fill="#FEE2E2" fill-opacity="0.7"/>
  <circle cx="200" cy="250" r="35" fill="#D1FAE5" fill-opacity="0.7"/>
  
  <!-- New badge -->
  <circle cx="200" cy="150" r="80" fill="#10B981" fill-opacity="0.9"/>
  <circle cx="200" cy="150" r="70" fill="#ECFDF5" fill-opacity="0.9"/>
  <circle cx="200" cy="150" r="60" fill="#10B981" fill-opacity="0.9"/>
  
  <path d="M170 150L230 150" stroke="white" stroke-width="6" stroke-linecap="round"/>
  <path d="M200 120L200 180" stroke="white" stroke-width="6" stroke-linecap="round"/>
  
  <!-- Product images -->
  <!-- New pet toy -->
  <rect x="350" y="100" width="100" height="120" rx="10" fill="#3B82F6" fill-opacity="0.9"/>
  <circle cx="400" cy="160" r="40" fill="#DBEAFE"/>
  <path d="M380 160L420 160" stroke="#1E40AF" stroke-width="4" stroke-linecap="round"/>
  <path d="M400 140L400 180" stroke="#1E40AF" stroke-width="4" stroke-linecap="round"/>
  <path d="M385 145L415 175" stroke="#1E40AF" stroke-width="4" stroke-linecap="round"/>
  <path d="M385 175L415 145" stroke="#1E40AF" stroke-width="4" stroke-linecap="round"/>
  
  <!-- New pet food -->
  <path d="M550 100L580 120V220L550 200V100Z" fill="#F59E0B" fill-opacity="0.9"/>
  <path d="M550 100L520 120V220L550 200V100Z" fill="#D97706" fill-opacity="0.9"/>
  <path d="M520 120L550 100L580 120L550 140L520 120Z" fill="#FBBF24" fill-opacity="0.9"/>
  
  <circle cx="550" cy="170" r="20" fill="#FCD34D"/>
  <path d="M540 170H560" stroke="#92400E" stroke-width="3" stroke-linecap="round"/>
  <path d="M550 160V180" stroke="#92400E" stroke-width="3" stroke-linecap="round"/>
  
  <!-- New pet bed -->
  <ellipse cx="700" cy="170" rx="60" ry="30" fill="#EC4899" fill-opacity="0.9"/>
  <ellipse cx="700" cy="170" rx="50" ry="20" fill="#FCE7F3"/>
  <path d="M670 160C670 160 680 150 700 150C720 150 730 160 730 160" stroke="#BE185D" stroke-width="3" stroke-linecap="round"/>
  
  <!-- New pet grooming brush -->
  <rect x="800" y="120" width="60" height="20" rx="5" fill="#8B5CF6" fill-opacity="0.9"/>
  <path d="M800 130H780" stroke="#8B5CF6" stroke-width="8" stroke-linecap="round" stroke-opacity="0.9"/>
  
  <path d="M810 140V160" stroke="#8B5CF6" stroke-width="4" stroke-linecap="round" stroke-opacity="0.9"/>
  <path d="M820 140V165" stroke="#8B5CF6" stroke-width="4" stroke-linecap="round" stroke-opacity="0.9"/>
  <path d="M830 140V170" stroke="#8B5CF6" stroke-width="4" stroke-linecap="round" stroke-opacity="0.9"/>
  <path d="M840 140V165" stroke="#8B5CF6" stroke-width="4" stroke-linecap="round" stroke-opacity="0.9"/>
  <path d="M850 140V160" stroke="#8B5CF6" stroke-width="4" stroke-linecap="round" stroke-opacity="0.9"/>
  
  <!-- New pet collar -->
  <path d="M950 120C950 120 920 130 920 150C920 170 950 180 950 180" stroke="#F43F5E" stroke-width="10" stroke-linecap="round" stroke-opacity="0.9"/>
  <path d="M950 120C950 120 980 130 980 150C980 170 950 180 950 180" stroke="#F43F5E" stroke-width="10" stroke-linecap="round" stroke-opacity="0.9"/>
  <circle cx="950" cy="150" r="8" fill="#FDE68A"/>
  
  <!-- Banner text -->
  <rect x="400" y="50" width="400" height="50" rx="10" fill="#FFFFFF" fill-opacity="0.9"/>
  <path d="M450 75H750" stroke="#10B981" stroke-width="6" stroke-linecap="round"/>
  
  <rect x="450" y="230" width="300" height="40" rx="20" fill="#10B981" fill-opacity="0.9"/>
  <path d="M500 250H700" stroke="white" stroke-width="4" stroke-linecap="round"/>
  
  <!-- Stars for new products -->
  <path d="M400 90L405 80L410 90L420 92L410 100L412 110L400 105L388 110L390 100L380 92L390 90L400 80L400 90Z" fill="#FBBF24"/>
  <path d="M550 80L555 70L560 80L570 82L560 90L562 100L550 95L538 100L540 90L530 82L540 80L550 70L550 80Z" fill="#FBBF24"/>
  <path d="M700 90L705 80L710 90L720 92L710 100L712 110L700 105L688 110L690 100L680 92L690 90L700 80L700 90Z" fill="#FBBF24"/>
  <path d="M830 90L835 80L840 90L850 92L840 100L842 110L830 105L818 110L820 100L810 92L820 90L830 80L830 90Z" fill="#FBBF24"/>
  <path d="M950 90L955 80L960 90L970 92L960 100L962 110L950 105L938 110L940 100L930 92L940 90L950 80L950 90Z" fill="#FBBF24"/>
  
  <!-- Gradient definition -->
  <defs>
    <linearGradient id="paint0_linear" x1="0" y1="0" x2="1200" y2="300" gradientUnits="userSpaceOnUse">
      <stop stop-color="#ECFDF5"/>
      <stop offset="0.5" stop-color="#F0FDFA"/>
      <stop offset="1" stop-color="#EFF6FF"/>
    </linearGradient>
  </defs>
</svg>