<svg width="800" height="800" viewBox="0 0 800 800" fill="none" xmlns="http://www.w3.org/2000/svg">
  <rect width="800" height="800" fill="#F3F4F6"/>
  <path d="M400 350C433.137 350 460 323.137 460 290C460 256.863 433.137 230 400 230C366.863 230 340 256.863 340 290C340 323.137 366.863 350 400 350Z" fill="#D1D5DB"/>
  <path d="M520 570H280C280 510 330 460 400 460C470 460 520 510 520 570Z" fill="#D1D5DB"/>
  <path d="M400 180C284.52 180 190 274.52 190 390V570C190 581.046 198.954 590 210 590H590C601.046 590 610 581.046 610 570V390C610 274.52 515.48 180 400 180ZM400 210C498.366 210 580 291.634 580 390V560H220V390C220 291.634 301.634 210 400 210Z" fill="#9CA3AF"/>
</svg>