<svg width="800" height="800" viewBox="0 0 800 800" fill="none" xmlns="http://www.w3.org/2000/svg">
  <rect width="800" height="800" fill="#F3F4F6"/>
  
  <!-- Fish food container -->
  <rect x="250" y="200" width="300" height="400" rx="20" fill="#DBEAFE" stroke="#3B82F6" stroke-width="8"/>
  
  <!-- Container lid -->
  <path d="M250 240H550" stroke="#3B82F6" stroke-width="8"/>
  <rect x="300" y="180" width="200" height="40" rx="10" fill="#3B82F6"/>
  
  <!-- Label -->
  <rect x="280" y="280" width="240" height="280" rx="10" fill="white" stroke="#3B82F6" stroke-width="4"/>
  
  <!-- Brand logo -->
  <rect x="320" y="300" width="160" height="40" rx="5" fill="#60A5FA"/>
  <path d="M340 320H460" stroke="white" stroke-width="6" stroke-linecap="round"/>
  
  <!-- Product name -->
  <rect x="320" y="360" width="160" height="30" rx="5" fill="#93C5FD"/>
  
  <!-- Fish illustrations -->
  <path d="M360 440C360 440 380 420 400 420C420 420 440 440 440 440C440 440 420 460 400 460C380 460 360 440 360 440Z" fill="#60A5FA"/>
  <circle cx="385" cy="435" r="5" fill="white"/>
  
  <path d="M320 480C320 480 340 460 360 460C380 460 400 480 400 480C400 480 380 500 360 500C340 500 320 480 320 480Z" fill="#60A5FA"/>
  <circle cx="345" cy="475" r="5" fill="white"/>
  
  <path d="M400 480C400 480 420 460 440 460C460 460 480 480 480 480C480 480 460 500 440 500C420 500 400 480 400 480Z" fill="#60A5FA"/>
  <circle cx="425" cy="475" r="5" fill="white"/>
  
  <!-- Product details -->
  <rect x="320" y="520" width="160" height="10" rx="5" fill="#BFDBFE"/>
  <rect x="320" y="540" width="120" height="10" rx="5" fill="#BFDBFE"/>
  
  <!-- Weight indicator -->
  <circle cx="400" cy="600" r="30" fill="#3B82F6"/>
  <path d="M385 600H415" stroke="white" stroke-width="4" stroke-linecap="round"/>
</svg>