<svg width="800" height="800" viewBox="0 0 800 800" fill="none" xmlns="http://www.w3.org/2000/svg">
  <rect width="800" height="800" fill="#F3F4F6"/>
  
  <!-- Pet toy base -->
  <ellipse cx="400" cy="500" rx="200" ry="50" fill="#D1FAE5" stroke="#10B981" stroke-width="8"/>
  
  <!-- Toy body -->
  <path d="M300 300C300 300 250 400 250 500C250 500 325 550 400 550C475 550 550 500 550 500C550 400 500 300 500 300C500 300 450 250 400 250C350 250 300 300 300 300Z" fill="#A7F3D0" stroke="#10B981" stroke-width="8"/>
  
  <!-- Toy details -->
  <circle cx="350" cy="350" r="30" fill="#34D399"/>
  <circle cx="450" cy="350" r="30" fill="#34D399"/>
  
  <path d="M370 420C370 420 385 440 400 440C415 440 430 420 430 420" stroke="#059669" stroke-width="8" stroke-linecap="round"/>
  
  <!-- Toy ears/protrusions -->
  <path d="M320 280C320 280 300 230 330 200C360 170 400 200 400 200" stroke="#10B981" stroke-width="8" stroke-linecap="round"/>
  <path d="M480 280C480 280 500 230 470 200C440 170 400 200 400 200" stroke="#10B981" stroke-width="8" stroke-linecap="round"/>
  
  <!-- Brand tag -->
  <rect x="350" y="500" width="100" height="30" rx="5" fill="white" stroke="#10B981" stroke-width="4"/>
  <rect x="360" y="510" width="80" height="10" rx="2" fill="#10B981"/>
</svg>